<svg xmlns="http://www.w3.org/2000/svg" viewBox="0 0 1600 900" preserveAspectRatio="xMidYMid slice"><rect width="1600" height="900" fill="#08182E"/><rect x="120" y="76" width="1360" height="747" fill="#102D50"/><rect x="120" y="114" width="1360" height="50" fill="#061223"/><rect x="120" y="114" width="1197" height="50" fill="#4C8DFF"/><rect x="120" y="238" width="1360" height="50" fill="#061223"/><rect x="120" y="238" width="843" height="50" fill="#1D4374"/><rect x="120" y="363" width="1360" height="50" fill="#061223"/><rect x="120" y="363" width="1006" height="50" fill="#1D4374"/><rect x="120" y="487" width="1360" height="50" fill="#061223"/><rect x="120" y="487" width="558" height="50" fill="#1D4374"/><rect x="120" y="612" width="1360" height="50" fill="#061223"/><rect x="120" y="612" width="748" height="50" fill="#1D4374"/><rect x="120" y="736" width="1360" height="50" fill="#061223"/><rect x="120" y="736" width="408" height="50" fill="#1D4374"/><rect x="1.5" y="1.5" width="1597" height="897" fill="none" stroke="#1D4374" stroke-width="3"/><rect x="656" y="730" width="288" height="68" rx="34" fill="#061223" opacity=".85"/><text x="800" y="774" text-anchor="middle" font-family="Helvetica,Arial,sans-serif" font-size="40" font-weight="600" letter-spacing="4.8" fill="#A7BBD6">FOTO VOLGT</text></svg>
