<svg xmlns="http://www.w3.org/2000/svg" viewBox="0 0 1600 900" preserveAspectRatio="xMidYMid slice"><rect width="1600" height="900" fill="#08182E"/><rect x="120" y="76" width="1360" height="747" fill="#102D50"/><rect x="120" y="114" width="1360" height="50" fill="#061223"/><rect x="120" y="114" width="1197" height="50" fill="#4C8DFF"/><rect x="120" y="238" width="1360" height="50" fill="#061223"/><rect x="120" y="238" width="843" height="50" fill="#1D4374"/><rect x="120" y="363" width="1360" height="50" fill="#061223"/><rect x="120" y="363" width="1006" height="50" fill="#1D4374"/><rect x="120" y="487" width="1360" height="50" fill="#061223"/><rect x="120" y="487" width="558" height="50" fill="#1D4374"/><rect x="120" y="612" width="1360" height="50" fill="#061223"/><rect x="120" y="612" width="748" height="50" fill="#1D4374"/><rect x="120" y="736" width="1360" height="50" fill="#061223"/><rect x="120" y="736" width="408" height="50" fill="#1D4374"/><text x="1528" y="855" text-anchor="end" font-family="system-ui, sans-serif" font-size="32" font-weight="500" letter-spacing="3.2" fill="#F6F8FB" opacity="0.35">C-04</text><rect x="1.5" y="1.5" width="1597" height="897" fill="none" stroke="#1D4374" stroke-width="3"/></svg>
