<svg xmlns="http://www.w3.org/2000/svg" viewBox="0 0 800 1000" preserveAspectRatio="xMidYMid slice"><rect width="800" height="1000" fill="#08182E"/><rect x="60" y="85" width="680" height="830" fill="#102D50"/><rect x="189" y="168" width="422" height="149" fill="#061223"/><rect x="189" y="168" width="93" height="149" fill="#4C8DFF"/><rect x="111" y="483" width="75" height="83" fill="#1D4374"/><rect x="237" y="483" width="75" height="83" fill="#1D4374"/><rect x="363" y="483" width="75" height="83" fill="#1D4374"/><rect x="488" y="483" width="75" height="83" fill="#1D4374"/><rect x="614" y="483" width="75" height="83" fill="#1D4374"/><rect x="148" y="699" width="75" height="83" fill="#1D4374"/><rect x="274" y="699" width="75" height="83" fill="#1D4374"/><rect x="400" y="699" width="75" height="83" fill="#1D4374"/><rect x="526" y="699" width="75" height="83" fill="#1D4374"/><rect x="1.5" y="1.5" width="797" height="997" fill="none" stroke="#1D4374" stroke-width="3"/><rect x="270" y="820" width="259" height="61" rx="31" fill="#061223" opacity=".85"/><text x="400" y="860" text-anchor="middle" font-family="Helvetica,Arial,sans-serif" font-size="36" font-weight="600" letter-spacing="4.3" fill="#A7BBD6">FOTO VOLGT</text></svg>
