<svg xmlns="http://www.w3.org/2000/svg" viewBox="0 0 1600 900" preserveAspectRatio="xMidYMid slice"><rect width="1600" height="900" fill="#08182E"/><rect x="120" y="76" width="1360" height="748" fill="#102D50"/><defs><clipPath id="c"><rect x="120" y="76" width="1360" height="748"/></clipPath></defs><g clip-path="url(#c)" stroke-width="14"><path d="M-696 824 L-172 76" stroke="#1D4374"/><path d="M-560 824 L-36 76" stroke="#1D4374"/><path d="M-424 824 L100 76" stroke="#1D4374"/><path d="M-288 824 L236 76" stroke="#1D4374"/><path d="M-152 824 L372 76" stroke="#1D4374"/><path d="M-16 824 L508 76" stroke="#1D4374"/><path d="M120 824 L644 76" stroke="#1D4374"/><path d="M256 824 L780 76" stroke="#1D4374"/><path d="M392 824 L916 76" stroke="#1D4374"/><path d="M528 824 L1052 76" stroke="#1D4374"/><path d="M664 824 L1188 76" stroke="#1D4374"/><path d="M800 824 L1324 76" stroke="#1D4374"/><path d="M936 824 L1460 76" stroke="#4C8DFF"/><path d="M1072 824 L1596 76" stroke="#1D4374"/><path d="M1208 824 L1732 76" stroke="#1D4374"/><path d="M1344 824 L1868 76" stroke="#1D4374"/><path d="M1480 824 L2004 76" stroke="#1D4374"/><path d="M1616 824 L2140 76" stroke="#1D4374"/><path d="M1752 824 L2276 76" stroke="#1D4374"/><path d="M1888 824 L2412 76" stroke="#1D4374"/><path d="M2024 824 L2548 76" stroke="#1D4374"/><path d="M2160 824 L2684 76" stroke="#1D4374"/></g><rect x="1.5" y="1.5" width="1597" height="897" fill="none" stroke="#1D4374" stroke-width="3"/></svg>